<svg xmlns="http://www.w3.org/2000/svg" xmlns:xlink="http://www.w3.org/1999/xlink" width="500" zoomAndPan="magnify" viewBox="0 0 375 374.999991" height="500" preserveAspectRatio="xMidYMid meet" version="1.2"><defs/><g id="ab9bd3b45f"><g style="fill:#000000;fill-opacity:0.4;"><g transform="translate(28.033461, 192.675969)"><path style="stroke:none" d="M 155.6875 0 L 147.515625 -102.609375 L 146.453125 -102.609375 L 111 -1.046875 L 87.5 -1.046875 L 52.03125 -102.609375 L 50.984375 -102.609375 L 42.8125 0 L 3.359375 0 L 18.890625 -173.109375 L 60.84375 -173.109375 L 99.25 -73.234375 L 137.640625 -173.109375 L 179.609375 -173.109375 L 195.140625 0 Z M 155.6875 0 "/></g></g><g style="fill:#a6b1e1;fill-opacity:1;"><g transform="translate(18.759712, 183.402219)"><path style="stroke:none" d="M 155.6875 0 L 147.515625 -102.609375 L 146.453125 -102.609375 L 111 -1.046875 L 87.5 -1.046875 L 52.03125 -102.609375 L 50.984375 -102.609375 L 42.8125 0 L 3.359375 0 L 18.890625 -173.109375 L 60.84375 -173.109375 L 99.25 -73.234375 L 137.640625 -173.109375 L 179.609375 -173.109375 L 195.140625 0 Z M 155.6875 0 "/></g></g><g style="fill:#000000;fill-opacity:0.4;"><g transform="translate(216.049074, 192.675969)"><path style="stroke:none" d="M 12.59375 -173.109375 L 74.484375 -173.109375 C 91.128906 -173.109375 104.695312 -168.664062 115.1875 -159.78125 C 125.6875 -150.894531 130.9375 -138.203125 130.9375 -121.703125 C 130.9375 -108.972656 127.753906 -98.304688 121.390625 -89.703125 C 115.023438 -81.097656 106.382812 -75.046875 95.46875 -71.546875 L 155.0625 0 L 104.921875 0 L 52.03125 -68.40625 L 52.03125 0 L 12.59375 0 Z M 52.03125 -96.3125 L 56.65625 -96.3125 C 60.289062 -96.3125 63.363281 -96.378906 65.875 -96.515625 C 68.394531 -96.660156 71.265625 -97.148438 74.484375 -97.984375 C 77.703125 -98.828125 80.289062 -100.015625 82.25 -101.546875 C 84.207031 -103.085938 85.882812 -105.328125 87.28125 -108.265625 C 88.6875 -111.203125 89.390625 -114.769531 89.390625 -118.96875 C 89.390625 -123.164062 88.6875 -126.734375 87.28125 -129.671875 C 85.882812 -132.609375 84.207031 -134.847656 82.25 -136.390625 C 80.289062 -137.929688 77.703125 -139.117188 74.484375 -139.953125 C 71.265625 -140.796875 68.394531 -141.285156 65.875 -141.421875 C 63.363281 -141.566406 60.289062 -141.640625 56.65625 -141.640625 L 52.03125 -141.640625 Z M 52.03125 -96.3125 "/></g></g><g style="fill:#fff2e0;fill-opacity:1;"><g transform="translate(206.775324, 183.402219)"><path style="stroke:none" d="M 12.59375 -173.109375 L 74.484375 -173.109375 C 91.128906 -173.109375 104.695312 -168.664062 115.1875 -159.78125 C 125.6875 -150.894531 130.9375 -138.203125 130.9375 -121.703125 C 130.9375 -108.972656 127.753906 -98.304688 121.390625 -89.703125 C 115.023438 -81.097656 106.382812 -75.046875 95.46875 -71.546875 L 155.0625 0 L 104.921875 0 L 52.03125 -68.40625 L 52.03125 0 L 12.59375 0 Z M 52.03125 -96.3125 L 56.65625 -96.3125 C 60.289062 -96.3125 63.363281 -96.378906 65.875 -96.515625 C 68.394531 -96.660156 71.265625 -97.148438 74.484375 -97.984375 C 77.703125 -98.828125 80.289062 -100.015625 82.25 -101.546875 C 84.207031 -103.085938 85.882812 -105.328125 87.28125 -108.265625 C 88.6875 -111.203125 89.390625 -114.769531 89.390625 -118.96875 C 89.390625 -123.164062 88.6875 -126.734375 87.28125 -129.671875 C 85.882812 -132.609375 84.207031 -134.847656 82.25 -136.390625 C 80.289062 -137.929688 77.703125 -139.117188 74.484375 -139.953125 C 71.265625 -140.796875 68.394531 -141.285156 65.875 -141.421875 C 63.363281 -141.566406 60.289062 -141.640625 56.65625 -141.640625 L 52.03125 -141.640625 Z M 52.03125 -96.3125 "/></g></g><g style="fill:#000000;fill-opacity:0.4;"><g transform="translate(20.020387, 364.003159)"><path style="stroke:none" d="M 100.046875 -172.328125 L 169.609375 0 L 127.40625 0 L 114.671875 -34.46875 L 49.078125 -34.46875 L 36.34375 0 L -5.84375 0 L 63.703125 -172.328125 Z M 101.296875 -68.921875 L 82.09375 -119.0625 L 81.671875 -119.0625 L 62.453125 -68.921875 Z M 101.296875 -68.921875 "/></g></g><g style="fill:#fff2e0;fill-opacity:1;"><g transform="translate(10.789264, 354.772038)"><path style="stroke:none" d="M 100.046875 -172.328125 L 169.609375 0 L 127.40625 0 L 114.671875 -34.46875 L 49.078125 -34.46875 L 36.34375 0 L -5.84375 0 L 63.703125 -172.328125 Z M 101.296875 -68.921875 L 82.09375 -119.0625 L 81.671875 -119.0625 L 62.453125 -68.921875 Z M 101.296875 -68.921875 "/></g></g><g style="fill:#000000;fill-opacity:0.4;"><g transform="translate(173.336787, 364.003159)"><path style="stroke:none" d="M 144.953125 -172.328125 L 144.953125 -61.203125 C 144.953125 -40.035156 139.242188 -24.019531 127.828125 -13.15625 C 116.410156 -2.289062 99.703125 3.140625 77.703125 3.140625 C 55.703125 3.140625 38.988281 -2.289062 27.5625 -13.15625 C 16.144531 -24.019531 10.4375 -40.035156 10.4375 -61.203125 L 10.4375 -172.328125 L 49.71875 -172.328125 L 49.71875 -72.6875 C 49.71875 -58.757812 51.910156 -49.082031 56.296875 -43.65625 C 60.679688 -38.226562 67.816406 -35.515625 77.703125 -35.515625 C 87.585938 -35.515625 94.722656 -38.226562 99.109375 -43.65625 C 103.492188 -49.082031 105.6875 -58.757812 105.6875 -72.6875 L 105.6875 -172.328125 Z M 144.953125 -172.328125 "/></g></g><g style="fill:#a6b1e1;fill-opacity:1;"><g transform="translate(164.105664, 354.772038)"><path style="stroke:none" d="M 144.953125 -172.328125 L 144.953125 -61.203125 C 144.953125 -40.035156 139.242188 -24.019531 127.828125 -13.15625 C 116.410156 -2.289062 99.703125 3.140625 77.703125 3.140625 C 55.703125 3.140625 38.988281 -2.289062 27.5625 -13.15625 C 16.144531 -24.019531 10.4375 -40.035156 10.4375 -61.203125 L 10.4375 -172.328125 L 49.71875 -172.328125 L 49.71875 -72.6875 C 49.71875 -58.757812 51.910156 -49.082031 56.296875 -43.65625 C 60.679688 -38.226562 67.816406 -35.515625 77.703125 -35.515625 C 87.585938 -35.515625 94.722656 -38.226562 99.109375 -43.65625 C 103.492188 -49.082031 105.6875 -58.757812 105.6875 -72.6875 L 105.6875 -172.328125 Z M 144.953125 -172.328125 "/></g></g><g style="fill:#000000;fill-opacity:0.4;"><g transform="translate(318.297715, 364.003159)"><path style="stroke:none" d=""/></g></g><g style="fill:#000000;fill-opacity:0.4;"><g transform="translate(364.876664, 364.003159)"><path style="stroke:none" d=""/></g></g><g style="fill:#a6b1e1;fill-opacity:1;"><g transform="translate(309.066592, 354.772038)"><path style="stroke:none" d=""/></g></g><g style="fill:#a6b1e1;fill-opacity:1;"><g transform="translate(355.645541, 354.772038)"><path style="stroke:none" d=""/></g></g></g></svg>