<svg xmlns="http://www.w3.org/2000/svg" xmlns:xlink="http://www.w3.org/1999/xlink" width="500" zoomAndPan="magnify" viewBox="0 0 375 374.999991" height="500" preserveAspectRatio="xMidYMid meet" version="1.2"><defs/><g id="ee3e7a98c7"><rect x="0" width="375" y="0" height="374.999991" style="fill:#ffffff;fill-opacity:1;stroke:none;"/><rect x="0" width="375" y="0" height="374.999991" style="fill:#ffffff;fill-opacity:1;stroke:none;"/><rect x="0" width="375" y="0" height="374.999991" style="fill:#f7cdd0;fill-opacity:1;stroke:none;"/><g style="fill:#000000;fill-opacity:0.4;"><g transform="translate(20.020378, 363.996706)"><path style="stroke:none" d="M 100.046875 -172.328125 L 169.609375 0 L 127.40625 0 L 114.671875 -34.46875 L 49.078125 -34.46875 L 36.34375 0 L -5.84375 0 L 63.703125 -172.328125 Z M 101.296875 -68.921875 L 82.09375 -119.0625 L 81.671875 -119.0625 L 62.453125 -68.921875 Z M 101.296875 -68.921875 "/></g></g><g style="fill:#ffffff;fill-opacity:1;"><g transform="translate(10.789264, 354.765597)"><path style="stroke:none" d="M 100.046875 -172.328125 L 169.609375 0 L 127.40625 0 L 114.671875 -34.46875 L 49.078125 -34.46875 L 36.34375 0 L -5.84375 0 L 63.703125 -172.328125 Z M 101.296875 -68.921875 L 82.09375 -119.0625 L 81.671875 -119.0625 L 62.453125 -68.921875 Z M 101.296875 -68.921875 "/></g></g><g style="fill:#000000;fill-opacity:0.4;"><g transform="translate(173.329035, 363.996706)"><path style="stroke:none" d="M 144.953125 -172.328125 L 144.953125 -61.203125 C 144.953125 -40.035156 139.242188 -24.019531 127.828125 -13.15625 C 116.410156 -2.289062 99.703125 3.140625 77.703125 3.140625 C 55.703125 3.140625 38.988281 -2.289062 27.5625 -13.15625 C 16.144531 -24.019531 10.4375 -40.035156 10.4375 -61.203125 L 10.4375 -172.328125 L 49.71875 -172.328125 L 49.71875 -72.6875 C 49.71875 -58.757812 51.910156 -49.082031 56.296875 -43.65625 C 60.679688 -38.226562 67.816406 -35.515625 77.703125 -35.515625 C 87.585938 -35.515625 94.722656 -38.226562 99.109375 -43.65625 C 103.492188 -49.082031 105.6875 -58.757812 105.6875 -72.6875 L 105.6875 -172.328125 Z M 144.953125 -172.328125 "/></g></g><g style="fill:#000000;fill-opacity:1;"><g transform="translate(164.09792, 354.765597)"><path style="stroke:none" d="M 144.953125 -172.328125 L 144.953125 -61.203125 C 144.953125 -40.035156 139.242188 -24.019531 127.828125 -13.15625 C 116.410156 -2.289062 99.703125 3.140625 77.703125 3.140625 C 55.703125 3.140625 38.988281 -2.289062 27.5625 -13.15625 C 16.144531 -24.019531 10.4375 -40.035156 10.4375 -61.203125 L 10.4375 -172.328125 L 49.71875 -172.328125 L 49.71875 -72.6875 C 49.71875 -58.757812 51.910156 -49.082031 56.296875 -43.65625 C 60.679688 -38.226562 67.816406 -35.515625 77.703125 -35.515625 C 87.585938 -35.515625 94.722656 -38.226562 99.109375 -43.65625 C 103.492188 -49.082031 105.6875 -58.757812 105.6875 -72.6875 L 105.6875 -172.328125 Z M 144.953125 -172.328125 "/></g></g><g style="fill:#000000;fill-opacity:0.4;"><g transform="translate(318.286555, 363.996706)"><path style="stroke:none" d=""/></g></g><g style="fill:#000000;fill-opacity:0.4;"><g transform="translate(364.860864, 363.996706)"><path style="stroke:none" d=""/></g></g><g style="fill:#000000;fill-opacity:1;"><g transform="translate(309.055441, 354.765597)"><path style="stroke:none" d=""/></g></g><g style="fill:#000000;fill-opacity:1;"><g transform="translate(355.62975, 354.765597)"><path style="stroke:none" d=""/></g></g><g style="fill:#000000;fill-opacity:0.4;"><g transform="translate(28.033476, 192.927786)"><path style="stroke:none" d="M 155.703125 0 L 147.515625 -102.609375 L 146.46875 -102.609375 L 111 -1.046875 L 87.5 -1.046875 L 52.046875 -102.609375 L 50.984375 -102.609375 L 42.8125 0 L 3.359375 0 L 18.890625 -173.125 L 60.859375 -173.125 L 99.25 -73.234375 L 137.65625 -173.125 L 179.625 -173.125 L 195.15625 0 Z M 155.703125 0 "/></g></g><g style="fill:#000000;fill-opacity:1;"><g transform="translate(18.759712, 183.654024)"><path style="stroke:none" d="M 155.703125 0 L 147.515625 -102.609375 L 146.46875 -102.609375 L 111 -1.046875 L 87.5 -1.046875 L 52.046875 -102.609375 L 50.984375 -102.609375 L 42.8125 0 L 3.359375 0 L 18.890625 -173.125 L 60.859375 -173.125 L 99.25 -73.234375 L 137.65625 -173.125 L 179.625 -173.125 L 195.15625 0 Z M 155.703125 0 "/></g></g><g style="fill:#000000;fill-opacity:0.4;"><g transform="translate(216.052779, 192.927786)"><path style="stroke:none" d="M 12.59375 -173.125 L 74.5 -173.125 C 91.144531 -173.125 104.710938 -168.679688 115.203125 -159.796875 C 125.691406 -150.910156 130.9375 -138.210938 130.9375 -121.703125 C 130.9375 -108.972656 127.753906 -98.304688 121.390625 -89.703125 C 115.023438 -81.097656 106.390625 -75.050781 95.484375 -71.5625 L 155.078125 0 L 104.921875 0 L 52.046875 -68.40625 L 52.046875 0 L 12.59375 0 Z M 52.046875 -96.3125 L 56.65625 -96.3125 C 60.289062 -96.3125 63.367188 -96.378906 65.890625 -96.515625 C 68.410156 -96.660156 71.28125 -97.148438 74.5 -97.984375 C 77.71875 -98.828125 80.304688 -100.019531 82.265625 -101.5625 C 84.222656 -103.101562 85.898438 -105.34375 87.296875 -108.28125 C 88.691406 -111.21875 89.390625 -114.785156 89.390625 -118.984375 C 89.390625 -123.179688 88.691406 -126.75 87.296875 -129.6875 C 85.898438 -132.625 84.222656 -134.859375 82.265625 -136.390625 C 80.304688 -137.929688 77.71875 -139.117188 74.5 -139.953125 C 71.28125 -140.796875 68.410156 -141.285156 65.890625 -141.421875 C 63.367188 -141.566406 60.289062 -141.640625 56.65625 -141.640625 L 52.046875 -141.640625 Z M 52.046875 -96.3125 "/></g></g><g style="fill:#ffffff;fill-opacity:1;"><g transform="translate(206.779015, 183.654024)"><path style="stroke:none" d="M 12.59375 -173.125 L 74.5 -173.125 C 91.144531 -173.125 104.710938 -168.679688 115.203125 -159.796875 C 125.691406 -150.910156 130.9375 -138.210938 130.9375 -121.703125 C 130.9375 -108.972656 127.753906 -98.304688 121.390625 -89.703125 C 115.023438 -81.097656 106.390625 -75.050781 95.484375 -71.5625 L 155.078125 0 L 104.921875 0 L 52.046875 -68.40625 L 52.046875 0 L 12.59375 0 Z M 52.046875 -96.3125 L 56.65625 -96.3125 C 60.289062 -96.3125 63.367188 -96.378906 65.890625 -96.515625 C 68.410156 -96.660156 71.28125 -97.148438 74.5 -97.984375 C 77.71875 -98.828125 80.304688 -100.019531 82.265625 -101.5625 C 84.222656 -103.101562 85.898438 -105.34375 87.296875 -108.28125 C 88.691406 -111.21875 89.390625 -114.785156 89.390625 -118.984375 C 89.390625 -123.179688 88.691406 -126.75 87.296875 -129.6875 C 85.898438 -132.625 84.222656 -134.859375 82.265625 -136.390625 C 80.304688 -137.929688 77.71875 -139.117188 74.5 -139.953125 C 71.28125 -140.796875 68.410156 -141.285156 65.890625 -141.421875 C 63.367188 -141.566406 60.289062 -141.640625 56.65625 -141.640625 L 52.046875 -141.640625 Z M 52.046875 -96.3125 "/></g></g></g></svg>